# xmcd CD database file
#
# Track frame offsets:
#	182
#	16567
#	35457
#	49492
#	65162
#	74495
#	85420
#	105827
#	121117
#	134895
#	148345
#	163037
#
# Disc length: 2299 seconds
#
# Revision: 4
# Processed by: cddbd v1.5.1PL0 Copyright (c) Steve Scherf et al.
# Submitted via: CDex 1.51
#
DISCID=b008f90c
DTITLE=Piaf, Edith - De l'Accordéoniste à Milord
DYEAR=2000
DGENRE=Chanson
TTITLE0=L'accordéoniste
TTITLE1=Les trois cloches
TTITLE2=La vie en rose
TTITLE3=Hymne à l'amour
TTITLE4=La goualante du pauvre Jean
TTITLE5=Le ça ira
TTITLE6=Milord
TTITLE7=Je sais comment
TTITLE8=Mon manège à moi
TTITLE9=La foule
TTITLE10=Les amants d'un jour
TTITLE11=L'homme à la moto
EXTD=\n YEAR: 2000
EXTT0=
EXTT1=
EXTT2=
EXTT3=
EXTT4=
EXTT5=
EXTT6=
EXTT7=
EXTT8=
EXTT9=
EXTT10=
EXTT11=
PLAYORDER=
